<svg width="100" height="100" viewBox="0 0 100 100" fill="none" xmlns="http://www.w3.org/2000/svg">
<path fill-rule="evenodd" clip-rule="evenodd" d="M75 37.8322C75 38.6713 74.7375 39.5105 74.125 40.0699L46.9125 69.0676C46.3 69.7203 45.6 70 44.8125 70C43.9375 70 43.2375 69.7203 42.625 69.0676L26.875 52.2844C26.2625 51.6317 26 50.8858 26 50.0466C26 49.1142 26.2625 48.3683 26.875 47.7156L31.1625 43.1469C31.775 42.4942 32.475 42.2145 33.35 42.2145C34.1375 42.2145 34.925 42.4942 35.45 43.1469L44.8125 53.0303L65.55 30.9324C66.075 30.2797 66.8625 30 67.65 30C68.525 30 69.225 30.2797 69.8375 30.9324L74.125 35.5012C74.7375 36.1538 75 36.8998 75 37.8322Z" fill="#E9520F"/>
<circle cx="50" cy="50" r="48" stroke="#E9520F" stroke-width="4"/>
</svg>
