<svg width="566" height="101" viewBox="0 0 566 101" fill="none" xmlns="http://www.w3.org/2000/svg">
<g clip-path="url(#clip0)">
<path d="M56.2386 52.6278L29.0311 9.46814L-0.155029 9.47089L27.0084 52.6278H56.2386Z" fill="#E8520F"/>
<path d="M76.0114 9.46814L46.8161 9.47089L78.85 60.2057L56.6057 95.3663L85.8349 95.3837L108.09 60.2066L76.0114 9.46814Z" fill="#E9520F"/>
<path d="M125.97 60.4472L94.9986 9.47009H120.092L137.499 42.8154L155.019 9.47009H179.435L148.351 60.4481V95.3756H125.971V60.4472H125.97Z" fill="#243367"/>
<path d="M187.533 97.1826C182.484 97.1826 177.963 95.9207 173.969 93.3969C169.974 90.8722 166.809 87.2746 164.475 82.6014C162.137 77.9301 160.97 72.5411 160.97 66.4372C160.97 60.7114 162.1 55.4931 164.361 50.7823C166.621 46.0743 169.824 42.3051 173.969 39.4794C178.112 36.6536 182.823 35.2412 188.097 35.2412C191.563 35.2412 194.767 35.9956 197.706 37.5016C200.645 39.0104 202.979 41.1184 204.713 43.8313L204.939 37.0501H224.042V95.3746H204.939L204.713 88.7054C202.979 91.4182 200.625 93.5088 197.648 94.9791C194.672 96.4493 191.3 97.1826 187.533 97.1826ZM193.072 79.0984C196.537 79.0984 199.363 77.8934 201.55 75.4816C203.734 73.0707 204.828 69.9815 204.828 66.2123C204.828 62.445 203.734 59.3559 201.55 56.944C199.363 54.5331 196.538 53.3272 193.072 53.3272C189.604 53.3272 186.759 54.5331 184.538 56.944C182.315 59.3559 181.203 62.445 181.203 66.2123C181.203 69.9815 182.315 73.0707 184.538 75.4816C186.759 77.8934 189.605 79.0984 193.072 79.0984Z" fill="#243367"/>
<path d="M233.221 37.0501H253.001L253.228 45.7531C254.658 42.5887 256.618 40.1585 259.105 38.4625C261.592 36.7665 264.492 35.9194 267.809 35.9194C270.37 35.9194 272.593 36.3343 274.478 37.1621L272.896 56.3778C270.56 55.3986 268.072 54.9085 265.436 54.9085C261.516 54.9085 258.558 56.2089 256.562 58.808C254.565 61.408 253.567 65.2707 253.567 70.3945V95.3746H233.221V37.0501V37.0501Z" fill="#243367"/>
<path d="M301.924 97.1826C296.875 97.1826 292.354 95.9207 288.36 93.3969C284.365 90.8721 281.201 87.2746 278.865 82.6014C276.529 77.9301 275.361 72.5411 275.361 66.4372C275.361 60.7114 276.492 55.4931 278.752 50.7823C281.013 46.0743 284.214 42.3051 288.36 39.4794C292.504 36.6536 297.214 35.2412 302.489 35.2412C305.654 35.2412 308.593 35.8625 311.306 37.1061C314.018 38.3487 316.279 40.1016 318.088 42.362V3.81763H338.433V95.3746H319.33L319.105 88.7054C317.37 91.4182 315.016 93.5088 312.04 94.9791C309.063 96.4493 305.692 97.1826 301.924 97.1826ZM307.463 79.0984C310.927 79.0984 313.754 77.8934 315.94 75.4816C318.125 73.0706 319.219 69.9815 319.219 66.2123C319.219 62.445 318.125 59.3559 315.94 56.944C313.754 54.5331 310.928 53.3272 307.463 53.3272C303.996 53.3272 301.151 54.5331 298.929 56.944C296.706 59.3559 295.595 62.445 295.595 66.2123C295.595 69.9815 296.706 73.0706 298.929 75.4816C301.151 77.8934 303.996 79.0984 307.463 79.0984Z" fill="#243367"/>
<path d="M424.507 37.05H404.16V95.3746H424.507V37.05Z" fill="#243367"/>
<path d="M434.009 37.0501H453.903L454.129 44.2837C455.559 41.4213 457.746 39.1976 460.685 37.6145C463.624 36.0323 467.015 35.2412 470.857 35.2412C477.563 35.2412 482.63 37.3328 486.061 41.5149C489.488 45.6971 491.204 51.8203 491.204 59.8827V95.3755H470.857V63.7253C470.857 56.7935 468.257 53.3263 463.058 53.3263C460.27 53.3263 458.122 54.2872 456.617 56.2089C455.108 58.1307 454.356 60.8995 454.356 64.5164V95.3746H434.01V37.0501H434.009Z" fill="#243367"/>
<path d="M500.369 3.81763H520.716V57.9609L538.462 37.0501H562.199L538.574 63.4995L566.155 95.3746H540.948L520.716 70.7332V95.3746H500.369V3.81763Z" fill="#243366"/>
<path d="M348.327 3.81763H368.553V76.9454H397.157V95.3746H348.327V3.81763Z" fill="#243367"/>
<path d="M414.333 28.538C421.16 28.538 426.694 23.0042 426.694 16.1778C426.694 9.35147 421.16 3.81763 414.333 3.81763C407.507 3.81763 401.973 9.35147 401.973 16.1778C401.973 23.0042 407.507 28.538 414.333 28.538Z" fill="#243367"/>
</g>
<defs>
<clipPath id="clip0">
<rect width="566" height="101" fill="white"/>
</clipPath>
</defs>
</svg>
